<svg width="174" height="16" viewBox="0 0 174 16" fill="none" xmlns="http://www.w3.org/2000/svg">
<g clip-path="url(#clip0_914_1266)">
<path d="M8 14.6667C4.318 14.6667 1.33333 11.682 1.33333 8C1.33333 4.318 4.318 1.33333 8 1.33333C11.682 1.33333 14.6667 4.318 14.6667 8C14.6667 11.682 11.682 14.6667 8 14.6667ZM8 13.3333C9.41448 13.3333 10.771 12.7714 11.7712 11.7712C12.7714 10.771 13.3333 9.41448 13.3333 8C13.3333 6.58551 12.7714 5.22895 11.7712 4.22876C10.771 3.22856 9.41448 2.66666 8 2.66666C6.58551 2.66666 5.22895 3.22856 4.22876 4.22876C3.22856 5.22895 2.66666 6.58551 2.66666 8C2.66666 9.41448 3.22856 10.771 4.22876 11.7712C5.22895 12.7714 6.58551 13.3333 8 13.3333ZM8.66666 8H11.3333V9.33333H7.33333V4.66666H8.66666V8Z" fill="#393939"/>
</g>
<path d="M30.58 12C30.508 12 30.464 11.968 30.448 11.904L28.252 4.272C28.228 4.184 28.264 4.14 28.36 4.14H29.152C29.224 4.14 29.268 4.172 29.284 4.236L30.676 9.192C30.732 9.376 30.784 9.564 30.832 9.756C30.88 9.94 30.928 10.128 30.976 10.32C31.032 10.504 31.084 10.692 31.132 10.884H31.144C31.232 10.604 31.316 10.328 31.396 10.056C31.484 9.784 31.568 9.512 31.648 9.24L32.656 5.892L32.224 4.392C32.216 4.352 32.22 4.32 32.236 4.296C32.26 4.272 32.292 4.26 32.332 4.26H33.148C33.22 4.26 33.264 4.296 33.28 4.368L34.636 9.348C34.708 9.604 34.776 9.86 34.84 10.116C34.912 10.372 34.984 10.628 35.056 10.884H35.068C35.116 10.7 35.164 10.516 35.212 10.332C35.26 10.148 35.308 9.964 35.356 9.78C35.404 9.596 35.452 9.412 35.5 9.228L36.844 4.236C36.86 4.172 36.904 4.14 36.976 4.14H37.804C37.9 4.14 37.936 4.184 37.912 4.272L35.8 11.904C35.784 11.968 35.74 12 35.668 12H34.528C34.456 12 34.412 11.968 34.396 11.904L33.58 9.084C33.5 8.82 33.424 8.556 33.352 8.292C33.28 8.028 33.208 7.764 33.136 7.5H33.124C33.044 7.756 32.964 8.016 32.884 8.28C32.812 8.536 32.736 8.792 32.656 9.048L31.804 11.904C31.796 11.936 31.78 11.96 31.756 11.976C31.74 11.992 31.712 12 31.672 12H30.58ZM41.0109 12.144C40.2429 12.144 39.6509 11.964 39.2349 11.604C38.8269 11.244 38.6229 10.712 38.6229 10.008V8.328C38.6229 7.568 38.8269 6.992 39.2349 6.6C39.6429 6.2 40.2349 6 41.0109 6C41.7869 6 42.3749 6.196 42.7749 6.588C43.1829 6.972 43.3869 7.532 43.3869 8.268V9.204C43.3869 9.284 43.3469 9.324 43.2669 9.324H39.6429V9.708C39.6429 10.244 39.7549 10.636 39.9789 10.884C40.2029 11.124 40.5669 11.244 41.0709 11.244C41.4469 11.244 41.7349 11.184 41.9349 11.064C42.1429 10.936 42.2469 10.752 42.2469 10.512C42.2469 10.424 42.2909 10.38 42.3789 10.38H43.1589C43.2229 10.38 43.2629 10.416 43.2789 10.488C43.3109 11 43.1229 11.404 42.7149 11.7C42.3069 11.996 41.7389 12.144 41.0109 12.144ZM39.6429 8.448H42.3669V8.376C42.3669 7.872 42.2549 7.5 42.0309 7.26C41.8069 7.02 41.4709 6.9 41.0229 6.9C40.5589 6.9 40.2109 7.024 39.9789 7.272C39.7549 7.52 39.6429 7.892 39.6429 8.388V8.448ZM46.6096 12.144C46.0496 12.144 45.6176 11.956 45.3136 11.58C45.0176 11.204 44.8696 10.648 44.8696 9.912V8.412C44.8696 7.652 45.0616 7.06 45.4456 6.636C45.8296 6.212 46.3616 6 47.0416 6C47.3536 6 47.6816 6.044 48.0256 6.132C48.3696 6.212 48.6296 6.316 48.8056 6.444L48.8656 7.32C48.6096 7.184 48.3296 7.08 48.0256 7.008C47.7216 6.936 47.4536 6.9 47.2216 6.9C46.7736 6.9 46.4376 7.036 46.2136 7.308C45.9976 7.58 45.8896 7.988 45.8896 8.532V9.972C45.8896 10.396 45.9696 10.716 46.1296 10.932C46.2976 11.14 46.5456 11.244 46.8736 11.244C47.0736 11.244 47.2696 11.208 47.4616 11.136C47.6536 11.056 47.8656 10.928 48.0976 10.752C48.3296 10.568 48.6016 10.32 48.9136 10.008L48.8896 10.944C48.6176 11.216 48.3576 11.444 48.1096 11.628C47.8696 11.804 47.6256 11.932 47.3776 12.012C47.1376 12.1 46.8816 12.144 46.6096 12.144ZM48.9736 12C48.9336 12 48.9016 11.992 48.8776 11.976C48.8536 11.952 48.8376 11.916 48.8296 11.868C48.8136 11.748 48.7936 11.596 48.7696 11.412C48.7456 11.228 48.7376 11.076 48.7456 10.956L48.6856 10.416V3.924C48.6856 3.844 48.7256 3.804 48.8056 3.804H49.5856C49.6656 3.804 49.7056 3.844 49.7056 3.924V10.644C49.7056 10.756 49.7096 10.892 49.7176 11.052C49.7256 11.204 49.7336 11.352 49.7416 11.496C49.7576 11.64 49.7736 11.752 49.7896 11.832C49.8136 11.944 49.7736 12 49.6696 12H48.9736ZM55.4892 12C55.4092 12 55.3692 11.96 55.3692 11.88V8.052C55.3692 7.652 55.2852 7.36 55.1172 7.176C54.9572 6.992 54.7132 6.9 54.3852 6.9C54.0732 6.9 53.7652 6.992 53.4612 7.176C53.1572 7.36 52.7772 7.676 52.3212 8.124L52.3332 7.2C52.6052 6.912 52.8612 6.68 53.1012 6.504C53.3492 6.328 53.5932 6.2 53.8332 6.12C54.0812 6.04 54.3412 6 54.6132 6C55.1892 6 55.6292 6.168 55.9332 6.504C56.2372 6.84 56.3892 7.34 56.3892 8.004V11.88C56.3892 11.96 56.3492 12 56.2692 12H55.4892ZM51.6372 12C51.5572 12 51.5172 11.96 51.5172 11.88V7.608C51.5172 7.4 51.5052 7.168 51.4812 6.912C51.4652 6.648 51.4492 6.444 51.4332 6.3C51.4172 6.196 51.4572 6.144 51.5532 6.144H52.2852C52.3252 6.144 52.3532 6.152 52.3692 6.168C52.3932 6.184 52.4092 6.216 52.4172 6.264C52.4332 6.328 52.4492 6.428 52.4652 6.564C52.4812 6.7 52.4972 6.844 52.5132 6.996C52.5292 7.14 52.5372 7.264 52.5372 7.368V7.68V11.88C52.5372 11.96 52.4972 12 52.4172 12H51.6372ZM60.4172 12.144C59.6492 12.144 59.0572 11.964 58.6412 11.604C58.2332 11.244 58.0292 10.712 58.0292 10.008V8.328C58.0292 7.568 58.2332 6.992 58.6412 6.6C59.0492 6.2 59.6412 6 60.4172 6C61.1932 6 61.7812 6.196 62.1812 6.588C62.5892 6.972 62.7932 7.532 62.7932 8.268V9.204C62.7932 9.284 62.7532 9.324 62.6732 9.324H59.0492V9.708C59.0492 10.244 59.1612 10.636 59.3852 10.884C59.6092 11.124 59.9732 11.244 60.4772 11.244C60.8532 11.244 61.1412 11.184 61.3412 11.064C61.5492 10.936 61.6532 10.752 61.6532 10.512C61.6532 10.424 61.6972 10.38 61.7852 10.38H62.5652C62.6292 10.38 62.6692 10.416 62.6852 10.488C62.7172 11 62.5292 11.404 62.1212 11.7C61.7132 11.996 61.1452 12.144 60.4172 12.144ZM59.0492 8.448H61.7732V8.376C61.7732 7.872 61.6612 7.5 61.4372 7.26C61.2132 7.02 60.8772 6.9 60.4292 6.9C59.9652 6.9 59.6172 7.024 59.3852 7.272C59.1612 7.52 59.0492 7.892 59.0492 8.388V8.448ZM66.3038 12.144C65.5838 12.144 65.0438 11.988 64.6838 11.676C64.3238 11.356 64.1438 10.88 64.1438 10.248C64.1438 10.176 64.1838 10.14 64.2638 10.14H65.0558C65.1278 10.14 65.1638 10.172 65.1638 10.236C65.1638 10.596 65.2518 10.856 65.4278 11.016C65.6118 11.176 65.9078 11.256 66.3158 11.256C66.7078 11.256 67.0038 11.192 67.2038 11.064C67.4038 10.928 67.5038 10.736 67.5038 10.488C67.5038 10.304 67.4478 10.152 67.3358 10.032C67.2238 9.904 67.0478 9.788 66.8078 9.684L65.4398 9.12C64.9998 8.936 64.6878 8.728 64.5038 8.496C64.3198 8.264 64.2278 7.964 64.2278 7.596C64.2278 7.068 64.3958 6.672 64.7318 6.408C65.0678 6.136 65.5678 6 66.2318 6C66.9118 6 67.4398 6.144 67.8158 6.432C68.1918 6.712 68.3798 7.112 68.3798 7.632C68.3798 7.704 68.3398 7.74 68.2598 7.74H67.4678C67.4358 7.74 67.4078 7.728 67.3838 7.704C67.3598 7.672 67.3478 7.62 67.3478 7.548C67.3478 7.34 67.2518 7.18 67.0598 7.068C66.8678 6.948 66.6038 6.888 66.2678 6.888C65.9238 6.888 65.6678 6.948 65.4998 7.068C65.3318 7.18 65.2478 7.356 65.2478 7.596C65.2478 7.772 65.2918 7.904 65.3798 7.992C65.4758 8.08 65.6638 8.184 65.9438 8.304L67.3118 8.88C67.7358 9.056 68.0438 9.264 68.2358 9.504C68.4278 9.744 68.5238 10.052 68.5238 10.428C68.5238 10.98 68.3318 11.404 67.9478 11.7C67.5638 11.996 67.0158 12.144 66.3038 12.144ZM71.5822 12.144C71.0222 12.144 70.5902 11.956 70.2862 11.58C69.9902 11.204 69.8422 10.648 69.8422 9.912V8.412C69.8422 7.652 70.0342 7.06 70.4182 6.636C70.8022 6.212 71.3342 6 72.0142 6C72.3262 6 72.6542 6.044 72.9982 6.132C73.3422 6.212 73.6022 6.316 73.7782 6.444L73.8382 7.32C73.5822 7.184 73.3022 7.08 72.9982 7.008C72.6942 6.936 72.4262 6.9 72.1942 6.9C71.7462 6.9 71.4102 7.036 71.1862 7.308C70.9702 7.58 70.8622 7.988 70.8622 8.532V9.972C70.8622 10.396 70.9422 10.716 71.1022 10.932C71.2702 11.14 71.5182 11.244 71.8462 11.244C72.0462 11.244 72.2422 11.208 72.4342 11.136C72.6262 11.056 72.8382 10.928 73.0702 10.752C73.3022 10.568 73.5742 10.32 73.8862 10.008L73.8622 10.944C73.5902 11.216 73.3302 11.444 73.0822 11.628C72.8422 11.804 72.5982 11.932 72.3502 12.012C72.1102 12.1 71.8542 12.144 71.5822 12.144ZM73.9462 12C73.9062 12 73.8742 11.992 73.8502 11.976C73.8262 11.952 73.8102 11.916 73.8022 11.868C73.7862 11.748 73.7662 11.596 73.7422 11.412C73.7182 11.228 73.7102 11.076 73.7182 10.956L73.6582 10.416V3.924C73.6582 3.844 73.6982 3.804 73.7782 3.804H74.5582C74.6382 3.804 74.6782 3.844 74.6782 3.924V10.644C74.6782 10.756 74.6822 10.892 74.6902 11.052C74.6982 11.204 74.7062 11.352 74.7142 11.496C74.7302 11.64 74.7462 11.752 74.7622 11.832C74.7862 11.944 74.7462 12 74.6422 12H73.9462ZM79.8858 12C79.8378 12 79.8058 11.984 79.7898 11.952C79.7738 11.92 79.7578 11.88 79.7418 11.832C79.7338 11.768 79.7138 11.632 79.6818 11.424C79.6578 11.208 79.6418 11.016 79.6338 10.848L79.5978 10.392V8.004C79.5978 7.604 79.5178 7.32 79.3578 7.152C79.1978 6.984 78.9178 6.9 78.5178 6.9C77.7978 6.9 77.4378 7.148 77.4378 7.644C77.4378 7.724 77.4018 7.764 77.3298 7.764H76.5378C76.4578 7.764 76.4138 7.688 76.4058 7.536C76.3658 7.08 76.5418 6.712 76.9338 6.432C77.3338 6.144 77.8738 6 78.5538 6C79.2498 6 79.7658 6.164 80.1018 6.492C80.4458 6.82 80.6178 7.316 80.6178 7.98V10.548C80.6178 10.828 80.6258 11.08 80.6418 11.304C80.6578 11.52 80.6778 11.708 80.7018 11.868C80.7178 11.956 80.6778 12 80.5818 12H79.8858ZM77.5938 12.144C77.1298 12.144 76.7738 12.004 76.5258 11.724C76.2858 11.444 76.1658 11.036 76.1658 10.5C76.1658 10.084 76.2458 9.744 76.4058 9.48C76.5738 9.216 76.8378 9.012 77.1978 8.868C77.5658 8.724 78.0538 8.628 78.6618 8.58L79.7898 8.484V9.264L78.6378 9.36C78.0858 9.408 77.7058 9.508 77.4978 9.66C77.2898 9.812 77.1858 10.068 77.1858 10.428C77.1858 10.7 77.2418 10.904 77.3538 11.04C77.4658 11.176 77.6338 11.244 77.8578 11.244C78.1218 11.244 78.3978 11.156 78.6858 10.98C78.9738 10.796 79.3538 10.46 79.8258 9.972V10.872C79.5458 11.176 79.2818 11.424 79.0338 11.616C78.7938 11.8 78.5578 11.932 78.3258 12.012C78.0938 12.1 77.8498 12.144 77.5938 12.144ZM83.1423 14.22C83.0463 14.22 83.0183 14.172 83.0583 14.076L83.9103 11.928L81.6903 6.288C81.6503 6.192 81.6783 6.144 81.7743 6.144H82.6263C82.6903 6.144 82.7343 6.176 82.7583 6.24L83.8383 9.144C83.9343 9.392 84.0263 9.648 84.1143 9.912C84.2103 10.176 84.3023 10.436 84.3903 10.692H84.4023C84.4903 10.436 84.5823 10.176 84.6783 9.912C84.7823 9.648 84.8783 9.392 84.9663 9.144L86.0463 6.24C86.0703 6.176 86.1183 6.144 86.1903 6.144H86.9943C87.0343 6.144 87.0623 6.16 87.0783 6.192C87.1023 6.216 87.1063 6.248 87.0903 6.288L84.0543 14.124C84.0303 14.188 83.9863 14.22 83.9223 14.22H83.1423ZM87.2495 13.536C87.1535 13.536 87.1175 13.484 87.1415 13.38L87.7415 10.848C87.7575 10.776 87.7975 10.74 87.8615 10.74H88.7735C88.8215 10.74 88.8535 10.756 88.8695 10.788C88.8855 10.82 88.8855 10.86 88.8695 10.908L88.0055 13.452C87.9815 13.508 87.9455 13.536 87.8975 13.536H87.2495ZM92.6781 12C92.5981 12 92.5581 11.96 92.5581 11.88V11.196C92.5581 11.116 92.5981 11.076 92.6781 11.076H94.5501V5.304L92.7501 5.868C92.7101 5.876 92.6781 5.876 92.6541 5.868C92.6381 5.852 92.6301 5.824 92.6301 5.784V5.076C92.6301 5.012 92.6541 4.972 92.7021 4.956L95.2101 4.116C95.2341 4.108 95.2581 4.104 95.2821 4.104C95.3141 4.096 95.3461 4.092 95.3781 4.092H95.4501C95.5301 4.092 95.5701 4.132 95.5701 4.212V11.076H97.2261C97.3061 11.076 97.3461 11.116 97.3461 11.196V11.88C97.3461 11.96 97.3061 12 97.2261 12H92.6781ZM101.007 12.144C100.167 12.144 99.5113 11.904 99.0393 11.424C98.5673 10.944 98.3313 10.276 98.3313 9.42V6.72C98.3313 5.864 98.5673 5.196 99.0393 4.716C99.5113 4.236 100.167 3.996 101.007 3.996C101.847 3.996 102.503 4.236 102.975 4.716C103.447 5.196 103.683 5.864 103.683 6.72V9.42C103.683 10.276 103.447 10.944 102.975 11.424C102.503 11.904 101.847 12.144 101.007 12.144ZM101.007 11.244C101.527 11.244 101.931 11.092 102.219 10.788C102.515 10.476 102.663 10.052 102.663 9.516V6.624C102.663 6.08 102.515 5.656 102.219 5.352C101.931 5.048 101.527 4.896 101.007 4.896C100.487 4.896 100.079 5.048 99.7833 5.352C99.4953 5.656 99.3513 6.08 99.3513 6.624V9.516C99.3513 10.052 99.4953 10.476 99.7833 10.788C100.079 11.092 100.487 11.244 101.007 11.244ZM107.452 13.668C107.276 13.708 107.176 13.692 107.152 13.62L106.948 12.912C106.94 12.864 106.952 12.824 106.984 12.792C107.016 12.768 107.076 12.744 107.164 12.72C107.38 12.664 107.56 12.564 107.704 12.42C107.856 12.276 107.968 12.088 108.04 11.856C108.112 11.616 108.148 11.336 108.148 11.016V4.26C108.148 4.18 108.188 4.14 108.268 4.14H109.048C109.128 4.14 109.168 4.18 109.168 4.26V10.968C109.168 11.48 109.1 11.92 108.964 12.288C108.836 12.664 108.644 12.964 108.388 13.188C108.14 13.42 107.828 13.58 107.452 13.668ZM114.48 12C114.432 12 114.4 11.984 114.384 11.952C114.368 11.92 114.352 11.88 114.336 11.832C114.328 11.768 114.308 11.632 114.276 11.424C114.252 11.208 114.236 11.016 114.228 10.848L114.192 10.392V8.004C114.192 7.604 114.112 7.32 113.952 7.152C113.792 6.984 113.512 6.9 113.112 6.9C112.392 6.9 112.032 7.148 112.032 7.644C112.032 7.724 111.996 7.764 111.924 7.764H111.132C111.052 7.764 111.008 7.688 111 7.536C110.96 7.08 111.136 6.712 111.528 6.432C111.928 6.144 112.468 6 113.148 6C113.844 6 114.36 6.164 114.696 6.492C115.04 6.82 115.212 7.316 115.212 7.98V10.548C115.212 10.828 115.22 11.08 115.236 11.304C115.252 11.52 115.272 11.708 115.296 11.868C115.312 11.956 115.272 12 115.176 12H114.48ZM112.188 12.144C111.724 12.144 111.368 12.004 111.12 11.724C110.88 11.444 110.76 11.036 110.76 10.5C110.76 10.084 110.84 9.744 111 9.48C111.168 9.216 111.432 9.012 111.792 8.868C112.16 8.724 112.648 8.628 113.256 8.58L114.384 8.484V9.264L113.232 9.36C112.68 9.408 112.3 9.508 112.092 9.66C111.884 9.812 111.78 10.068 111.78 10.428C111.78 10.7 111.836 10.904 111.948 11.04C112.06 11.176 112.228 11.244 112.452 11.244C112.716 11.244 112.992 11.156 113.28 10.98C113.568 10.796 113.948 10.46 114.42 9.972V10.872C114.14 11.176 113.876 11.424 113.628 11.616C113.388 11.8 113.152 11.932 112.92 12.012C112.688 12.1 112.444 12.144 112.188 12.144ZM120.985 12C120.905 12 120.865 11.96 120.865 11.88V8.052C120.865 7.652 120.781 7.36 120.613 7.176C120.453 6.992 120.209 6.9 119.881 6.9C119.569 6.9 119.261 6.992 118.957 7.176C118.653 7.36 118.273 7.676 117.817 8.124L117.829 7.2C118.101 6.912 118.357 6.68 118.597 6.504C118.845 6.328 119.089 6.2 119.329 6.12C119.577 6.04 119.837 6 120.109 6C120.685 6 121.125 6.168 121.429 6.504C121.733 6.84 121.885 7.34 121.885 8.004V11.88C121.885 11.96 121.845 12 121.765 12H120.985ZM117.133 12C117.053 12 117.013 11.96 117.013 11.88V7.608C117.013 7.4 117.001 7.168 116.977 6.912C116.961 6.648 116.945 6.444 116.929 6.3C116.913 6.196 116.953 6.144 117.049 6.144H117.781C117.821 6.144 117.849 6.152 117.865 6.168C117.889 6.184 117.905 6.216 117.913 6.264C117.929 6.328 117.945 6.428 117.961 6.564C117.977 6.7 117.993 6.844 118.009 6.996C118.025 7.14 118.033 7.264 118.033 7.368V7.68V11.88C118.033 11.96 117.993 12 117.913 12H117.133ZM125.265 12.144C124.753 12.144 124.361 11.972 124.089 11.628C123.817 11.284 123.681 10.788 123.681 10.14V6.264C123.681 6.184 123.721 6.144 123.801 6.144H124.581C124.661 6.144 124.701 6.184 124.701 6.264V10.092C124.701 10.484 124.769 10.776 124.905 10.968C125.049 11.152 125.269 11.244 125.565 11.244C125.861 11.244 126.157 11.152 126.453 10.968C126.757 10.784 127.133 10.464 127.581 10.008L127.557 10.956C127.301 11.22 127.045 11.44 126.789 11.616C126.533 11.792 126.277 11.924 126.021 12.012C125.773 12.1 125.521 12.144 125.265 12.144ZM127.665 12C127.625 12 127.593 11.992 127.569 11.976C127.545 11.952 127.529 11.92 127.521 11.88C127.497 11.728 127.477 11.572 127.461 11.412C127.445 11.252 127.433 11.088 127.425 10.92L127.365 10.416V6.264C127.365 6.184 127.405 6.144 127.485 6.144H128.265C128.345 6.144 128.385 6.184 128.385 6.264V10.536C128.385 10.752 128.389 10.976 128.397 11.208C128.413 11.44 128.437 11.664 128.469 11.88C128.485 11.96 128.441 12 128.337 12H127.665ZM133.581 12C133.533 12 133.501 11.984 133.485 11.952C133.469 11.92 133.453 11.88 133.437 11.832C133.429 11.768 133.409 11.632 133.377 11.424C133.353 11.208 133.337 11.016 133.329 10.848L133.293 10.392V8.004C133.293 7.604 133.213 7.32 133.053 7.152C132.893 6.984 132.613 6.9 132.213 6.9C131.493 6.9 131.133 7.148 131.133 7.644C131.133 7.724 131.097 7.764 131.025 7.764H130.233C130.153 7.764 130.109 7.688 130.101 7.536C130.061 7.08 130.237 6.712 130.629 6.432C131.029 6.144 131.569 6 132.249 6C132.945 6 133.461 6.164 133.797 6.492C134.141 6.82 134.313 7.316 134.313 7.98V10.548C134.313 10.828 134.321 11.08 134.337 11.304C134.353 11.52 134.373 11.708 134.397 11.868C134.413 11.956 134.373 12 134.277 12H133.581ZM131.289 12.144C130.825 12.144 130.469 12.004 130.221 11.724C129.981 11.444 129.861 11.036 129.861 10.5C129.861 10.084 129.941 9.744 130.101 9.48C130.269 9.216 130.533 9.012 130.893 8.868C131.261 8.724 131.749 8.628 132.357 8.58L133.485 8.484V9.264L132.333 9.36C131.781 9.408 131.401 9.508 131.193 9.66C130.985 9.812 130.881 10.068 130.881 10.428C130.881 10.7 130.937 10.904 131.049 11.04C131.161 11.176 131.329 11.244 131.553 11.244C131.817 11.244 132.093 11.156 132.381 10.98C132.669 10.796 133.049 10.46 133.521 9.972V10.872C133.241 11.176 132.977 11.424 132.729 11.616C132.489 11.8 132.253 11.932 132.021 12.012C131.789 12.1 131.545 12.144 131.289 12.144ZM136.235 12C136.155 12 136.115 11.96 136.115 11.88V7.572C136.115 7.348 136.107 7.132 136.091 6.924C136.083 6.708 136.063 6.492 136.031 6.276C136.015 6.188 136.055 6.144 136.151 6.144H136.883C136.923 6.144 136.951 6.152 136.967 6.168C136.991 6.184 137.007 6.212 137.015 6.252C137.047 6.404 137.071 6.58 137.087 6.78C137.103 6.972 137.111 7.136 137.111 7.272L137.135 7.908V11.88C137.135 11.96 137.095 12 137.015 12H136.235ZM137.003 8.268L136.979 7.284C137.147 7.036 137.339 6.816 137.555 6.624C137.779 6.432 138.003 6.28 138.227 6.168C138.459 6.056 138.671 6 138.863 6C139.007 6 139.115 6.012 139.187 6.036C139.227 6.044 139.251 6.06 139.259 6.084C139.275 6.1 139.287 6.124 139.295 6.156C139.311 6.324 139.315 6.496 139.307 6.672C139.307 6.848 139.295 7.016 139.271 7.176C139.263 7.216 139.243 7.244 139.211 7.26C139.187 7.276 139.155 7.28 139.115 7.272C139.051 7.256 138.983 7.244 138.911 7.236C138.839 7.228 138.763 7.224 138.683 7.224C138.483 7.224 138.283 7.268 138.083 7.356C137.883 7.444 137.691 7.568 137.507 7.728C137.323 7.88 137.155 8.06 137.003 8.268ZM141.467 14.22C141.371 14.22 141.343 14.172 141.383 14.076L142.235 11.928L140.015 6.288C139.975 6.192 140.003 6.144 140.099 6.144H140.951C141.015 6.144 141.059 6.176 141.083 6.24L142.163 9.144C142.259 9.392 142.351 9.648 142.439 9.912C142.535 10.176 142.627 10.436 142.715 10.692H142.727C142.815 10.436 142.907 10.176 143.003 9.912C143.107 9.648 143.203 9.392 143.291 9.144L144.371 6.24C144.395 6.176 144.443 6.144 144.515 6.144H145.319C145.359 6.144 145.387 6.16 145.403 6.192C145.427 6.216 145.431 6.248 145.415 6.288L142.379 14.124C142.355 14.188 142.311 14.22 142.247 14.22H141.467ZM149.171 12C149.091 12 149.051 11.96 149.051 11.88V11.052C149.051 10.668 149.119 10.328 149.255 10.032C149.399 9.728 149.587 9.46 149.819 9.228C150.051 8.996 150.303 8.784 150.575 8.592C150.855 8.392 151.131 8.204 151.403 8.028C151.683 7.844 151.939 7.664 152.171 7.488C152.403 7.304 152.587 7.108 152.723 6.9C152.867 6.684 152.939 6.444 152.939 6.18V5.928C152.939 5.584 152.815 5.328 152.567 5.16C152.327 4.984 151.971 4.896 151.499 4.896C151.027 4.896 150.675 5 150.443 5.208C150.219 5.416 150.107 5.708 150.107 6.084C150.107 6.164 150.071 6.204 149.999 6.204H149.219C149.139 6.204 149.099 6.164 149.099 6.084C149.099 5.636 149.191 5.256 149.375 4.944C149.559 4.632 149.835 4.396 150.203 4.236C150.579 4.076 151.047 3.996 151.607 3.996C152.399 3.996 152.987 4.164 153.371 4.5C153.763 4.836 153.959 5.328 153.959 5.976C153.959 6.4 153.887 6.764 153.743 7.068C153.607 7.364 153.423 7.628 153.191 7.86C152.967 8.084 152.715 8.288 152.435 8.472C152.163 8.648 151.891 8.82 151.619 8.988C151.347 9.156 151.095 9.336 150.863 9.528C150.639 9.72 150.455 9.94 150.311 10.188C150.175 10.436 150.107 10.732 150.107 11.076H153.803C153.883 11.076 153.923 11.116 153.923 11.196V11.88C153.923 11.96 153.883 12 153.803 12H149.171ZM158.171 12.144C157.331 12.144 156.675 11.904 156.203 11.424C155.731 10.944 155.495 10.276 155.495 9.42V6.72C155.495 5.864 155.731 5.196 156.203 4.716C156.675 4.236 157.331 3.996 158.171 3.996C159.011 3.996 159.667 4.236 160.139 4.716C160.611 5.196 160.847 5.864 160.847 6.72V9.42C160.847 10.276 160.611 10.944 160.139 11.424C159.667 11.904 159.011 12.144 158.171 12.144ZM158.171 11.244C158.691 11.244 159.095 11.092 159.383 10.788C159.679 10.476 159.827 10.052 159.827 9.516V6.624C159.827 6.08 159.679 5.656 159.383 5.352C159.095 5.048 158.691 4.896 158.171 4.896C157.651 4.896 157.243 5.048 156.947 5.352C156.659 5.656 156.515 6.08 156.515 6.624V9.516C156.515 10.052 156.659 10.476 156.947 10.788C157.243 11.092 157.651 11.244 158.171 11.244ZM162.612 12C162.532 12 162.492 11.96 162.492 11.88V11.052C162.492 10.668 162.56 10.328 162.696 10.032C162.84 9.728 163.028 9.46 163.26 9.228C163.492 8.996 163.744 8.784 164.016 8.592C164.296 8.392 164.572 8.204 164.844 8.028C165.124 7.844 165.38 7.664 165.612 7.488C165.844 7.304 166.028 7.108 166.164 6.9C166.308 6.684 166.38 6.444 166.38 6.18V5.928C166.38 5.584 166.256 5.328 166.008 5.16C165.768 4.984 165.412 4.896 164.94 4.896C164.468 4.896 164.116 5 163.884 5.208C163.66 5.416 163.548 5.708 163.548 6.084C163.548 6.164 163.512 6.204 163.44 6.204H162.66C162.58 6.204 162.54 6.164 162.54 6.084C162.54 5.636 162.632 5.256 162.816 4.944C163 4.632 163.276 4.396 163.644 4.236C164.02 4.076 164.488 3.996 165.048 3.996C165.84 3.996 166.428 4.164 166.812 4.5C167.204 4.836 167.4 5.328 167.4 5.976C167.4 6.4 167.328 6.764 167.184 7.068C167.048 7.364 166.864 7.628 166.632 7.86C166.408 8.084 166.156 8.288 165.876 8.472C165.604 8.648 165.332 8.82 165.06 8.988C164.788 9.156 164.536 9.336 164.304 9.528C164.08 9.72 163.896 9.94 163.752 10.188C163.616 10.436 163.548 10.732 163.548 11.076H167.244C167.324 11.076 167.364 11.116 167.364 11.196V11.88C167.364 11.96 167.324 12 167.244 12H162.612ZM168.733 12C168.653 12 168.613 11.96 168.613 11.88V11.196C168.613 11.116 168.653 11.076 168.733 11.076H170.605V5.304L168.805 5.868C168.765 5.876 168.733 5.876 168.709 5.868C168.693 5.852 168.685 5.824 168.685 5.784V5.076C168.685 5.012 168.709 4.972 168.757 4.956L171.265 4.116C171.289 4.108 171.313 4.104 171.337 4.104C171.369 4.096 171.401 4.092 171.433 4.092H171.505C171.585 4.092 171.625 4.132 171.625 4.212V11.076H173.281C173.361 11.076 173.401 11.116 173.401 11.196V11.88C173.401 11.96 173.361 12 173.281 12H168.733Z" fill="#393939"/>
<defs>
<clipPath id="clip0_914_1266">
<rect width="16" height="16" fill="white"/>
</clipPath>
</defs>
</svg>
