<svg width="16" height="16" viewBox="0 0 16 16" fill="none" xmlns="http://www.w3.org/2000/svg">
<g clip-path="url(#clip0_915_76)">
<path d="M14.362 4.33201C14.6666 5.52 14.6666 8 14.6666 8C14.6666 8 14.6666 10.48 14.362 11.668C14.1926 12.3247 13.6973 12.8413 13.07 13.016C11.9306 13.3333 7.99998 13.3333 7.99998 13.3333C7.99998 13.3333 4.07131 13.3333 2.92998 13.016C2.29998 12.8387 1.80531 12.3227 1.63798 11.668C1.33331 10.48 1.33331 8 1.33331 8C1.33331 8 1.33331 5.52 1.63798 4.33201C1.80731 3.67534 2.30265 3.15867 2.92998 2.984C4.07131 2.66667 7.99998 2.66667 7.99998 2.66667C7.99998 2.66667 11.9306 2.66667 13.07 2.984C13.7 3.16134 14.1946 3.67734 14.362 4.33201ZM6.66665 10.3333L10.6666 8L6.66665 5.66667V10.3333Z" fill="white"/>
</g>
<defs>
<clipPath id="clip0_915_76">
<rect width="16" height="16" fill="white"/>
</clipPath>
</defs>
</svg>
