<svg width="16" height="16" viewBox="0 0 16 16" fill="none" xmlns="http://www.w3.org/2000/svg">
<g clip-path="url(#clip0_915_66)">
<path d="M14.7746 3.77066C14.2657 3.99579 13.7259 4.14365 13.1733 4.20933C13.7558 3.86095 14.1918 3.31267 14.4 2.66666C13.8533 2.992 13.254 3.22 12.6293 3.34333C12.2097 2.89438 11.6535 2.59664 11.0473 2.49639C10.441 2.39613 9.8186 2.49899 9.27682 2.78897C8.73504 3.07894 8.30423 3.53979 8.05138 4.09986C7.79854 4.65993 7.73781 5.28785 7.87864 5.886C6.77005 5.83043 5.68553 5.54235 4.6955 5.04044C3.70547 4.53853 2.83206 3.83403 2.13197 2.97266C1.88417 3.3983 1.75394 3.88215 1.75464 4.37466C1.75464 5.34133 2.24664 6.19533 2.99464 6.69533C2.55198 6.68139 2.11906 6.56185 1.73197 6.34666V6.38133C1.73211 7.02513 1.95489 7.64907 2.36254 8.14737C2.77019 8.64567 3.33763 8.98765 3.96864 9.11533C3.55772 9.22669 3.12685 9.2431 2.70864 9.16333C2.88655 9.71749 3.23331 10.2021 3.70037 10.5494C4.16743 10.8967 4.73139 11.0892 5.31331 11.1C4.73496 11.5542 4.07276 11.89 3.36456 12.0881C2.65636 12.2862 1.91606 12.3428 1.18597 12.2547C2.46044 13.0743 3.94404 13.5094 5.45931 13.508C10.588 13.508 13.3926 9.25933 13.3926 5.57466C13.3926 5.45466 13.3893 5.33333 13.384 5.21466C13.9299 4.82011 14.401 4.33134 14.7753 3.77133L14.7746 3.77066Z" fill="white"/>
</g>
<defs>
<clipPath id="clip0_915_66">
<rect width="16" height="16" fill="white"/>
</clipPath>
</defs>
</svg>
