<svg width="8" height="8" viewBox="0 0 8 8" fill="none" xmlns="http://www.w3.org/2000/svg">
<g clip-path="url(#clip0_914_1277)">
<path d="M1.49999 3.33333C1.34679 3.33333 1.19508 3.30316 1.05353 3.24453C0.911984 3.1859 0.783372 3.09996 0.675037 2.99162C0.566702 2.88329 0.480766 2.75468 0.422135 2.61313C0.363505 2.47158 0.333328 2.31988 0.333328 2.16667C0.333328 2.01346 0.363505 1.86175 0.422135 1.7202C0.480766 1.57866 0.566702 1.45004 0.675037 1.34171C0.783372 1.23337 0.911984 1.14744 1.05353 1.08881C1.19508 1.03018 1.34679 1 1.49999 1C1.80941 1 2.10616 1.12292 2.32495 1.34171C2.54375 1.5605 2.66666 1.85725 2.66666 2.16667C2.66666 2.47609 2.54375 2.77283 2.32495 2.99162C2.10616 3.21042 1.80941 3.33333 1.49999 3.33333ZM1.49999 2.66667C1.6326 2.66667 1.75978 2.61399 1.85355 2.52022C1.94732 2.42645 1.99999 2.29927 1.99999 2.16667C1.99999 2.03406 1.94732 1.90688 1.85355 1.81311C1.75978 1.71935 1.6326 1.66667 1.49999 1.66667C1.36739 1.66667 1.24021 1.71935 1.14644 1.81311C1.05267 1.90688 0.999995 2.03406 0.999995 2.16667C0.999995 2.29927 1.05267 2.42645 1.14644 2.52022C1.24021 2.61399 1.36739 2.66667 1.49999 2.66667ZM7.33333 3.33333H6.66666C6.66666 2.97971 6.52619 2.64057 6.27614 2.39052C6.02609 2.14048 5.68695 2 5.33333 2C4.97971 2 4.64057 2.14048 4.39052 2.39052C4.14047 2.64057 3.99999 2.97971 3.99999 3.33333V5C3.99999 5.35362 4.14047 5.69276 4.39052 5.94281C4.64057 6.19286 4.97971 6.33333 5.33333 6.33333C5.68695 6.33333 6.02609 6.19286 6.27614 5.94281C6.52619 5.69276 6.66666 5.35362 6.66666 5H7.33333C7.33333 5.53043 7.12261 6.03914 6.74754 6.41421C6.37247 6.78929 5.86376 7 5.33333 7C4.8029 7 4.29419 6.78929 3.91911 6.41421C3.54404 6.03914 3.33333 5.53043 3.33333 5V3.33333C3.33333 2.8029 3.54404 2.29419 3.91911 1.91912C4.29419 1.54405 4.8029 1.33333 5.33333 1.33333C5.86376 1.33333 6.37247 1.54405 6.74754 1.91912C7.12261 2.29419 7.33333 2.8029 7.33333 3.33333Z" fill="#393939"/>
</g>
<defs>
<clipPath id="clip0_914_1277">
<rect width="8" height="8" fill="white"/>
</clipPath>
</defs>
</svg>
