<svg width="16" height="16" viewBox="0 0 16 16" fill="none" xmlns="http://www.w3.org/2000/svg">
<g clip-path="url(#clip0_914_1267)">
<path d="M8 14.6667C4.318 14.6667 1.33333 11.682 1.33333 8C1.33333 4.318 4.318 1.33333 8 1.33333C11.682 1.33333 14.6667 4.318 14.6667 8C14.6667 11.682 11.682 14.6667 8 14.6667ZM8 13.3333C9.41448 13.3333 10.771 12.7714 11.7712 11.7712C12.7714 10.771 13.3333 9.41448 13.3333 8C13.3333 6.58551 12.7714 5.22895 11.7712 4.22876C10.771 3.22856 9.41448 2.66666 8 2.66666C6.58551 2.66666 5.22895 3.22856 4.22876 4.22876C3.22856 5.22895 2.66666 6.58551 2.66666 8C2.66666 9.41448 3.22856 10.771 4.22876 11.7712C5.22895 12.7714 6.58551 13.3333 8 13.3333ZM8.66666 8H11.3333V9.33333H7.33333V4.66666H8.66666V8Z" fill="#393939"/>
</g>
<defs>
<clipPath id="clip0_914_1267">
<rect width="16" height="16" fill="white"/>
</clipPath>
</defs>
</svg>
