<svg width="16" height="16" viewBox="0 0 16 16" fill="none" xmlns="http://www.w3.org/2000/svg">
<rect width="16" height="16" fill="#1E1E1E"/>
<path d="M-2245 -126C-2245 -127.105 -2244.1 -128 -2243 -128H370C371.104 -128 372 -127.105 372 -126V2183C372 2184.1 371.104 2185 370 2185H-2243C-2244.1 2185 -2245 2184.1 -2245 2183V-126Z" fill="#404040"/>
<path d="M-2243 -127H370V-129H-2243V-127ZM371 -126V2183H373V-126H371ZM370 2184H-2243V2186H370V2184ZM-2244 2183V-126H-2246V2183H-2244ZM-2243 2184C-2243.55 2184 -2244 2183.55 -2244 2183H-2246C-2246 2184.66 -2244.66 2186 -2243 2186V2184ZM371 2183C371 2183.55 370.552 2184 370 2184V2186C371.657 2186 373 2184.66 373 2183H371ZM370 -127C370.552 -127 371 -126.552 371 -126H373C373 -127.657 371.657 -129 370 -129V-127ZM-2243 -129C-2244.66 -129 -2246 -127.657 -2246 -126H-2244C-2244 -126.552 -2243.55 -127 -2243 -127V-129Z" fill="white" fill-opacity="0.1"/>
<g clip-path="url(#clip0_913_423)">
<rect width="1440" height="1515" transform="translate(-1232 -28)" fill="white"/>
<g filter="url(#filter0_d_913_423)">
<circle cx="8" cy="8" r="12" fill="#42C0F5"/>
</g>
<g clip-path="url(#clip1_913_423)">
<path d="M14.7746 3.77066C14.2657 3.99579 13.7259 4.14365 13.1733 4.20933C13.7558 3.86095 14.1918 3.31267 14.4 2.66666C13.8533 2.992 13.254 3.22 12.6293 3.34333C12.2097 2.89438 11.6535 2.59664 11.0473 2.49639C10.441 2.39613 9.8186 2.49899 9.27682 2.78897C8.73504 3.07894 8.30423 3.53979 8.05138 4.09986C7.79854 4.65993 7.73781 5.28785 7.87864 5.886C6.77005 5.83043 5.68553 5.54235 4.6955 5.04044C3.70547 4.53853 2.83206 3.83403 2.13197 2.97266C1.88417 3.3983 1.75394 3.88215 1.75464 4.37466C1.75464 5.34133 2.24664 6.19533 2.99464 6.69533C2.55198 6.68139 2.11906 6.56185 1.73197 6.34666V6.38133C1.73211 7.02513 1.95489 7.64907 2.36254 8.14737C2.77019 8.64567 3.33763 8.98765 3.96864 9.11533C3.55772 9.22669 3.12685 9.2431 2.70864 9.16333C2.88655 9.71749 3.23331 10.2021 3.70037 10.5494C4.16743 10.8967 4.73139 11.0892 5.31331 11.1C4.73496 11.5542 4.07276 11.89 3.36456 12.0881C2.65636 12.2862 1.91606 12.3428 1.18597 12.2547C2.46044 13.0743 3.94404 13.5094 5.45931 13.508C10.588 13.508 13.3926 9.25933 13.3926 5.57466C13.3926 5.45466 13.3893 5.33333 13.384 5.21466C13.9299 4.82011 14.401 4.33134 14.7753 3.77133L14.7746 3.77066Z" fill="white"/>
</g>
</g>
<defs>
<filter id="filter0_d_913_423" x="-5" y="-4" width="26" height="26" filterUnits="userSpaceOnUse" color-interpolation-filters="sRGB">
<feFlood flood-opacity="0" result="BackgroundImageFix"/>
<feColorMatrix in="SourceAlpha" type="matrix" values="0 0 0 0 0 0 0 0 0 0 0 0 0 0 0 0 0 0 127 0" result="hardAlpha"/>
<feOffset dy="1"/>
<feGaussianBlur stdDeviation="0.5"/>
<feColorMatrix type="matrix" values="0 0 0 0 0 0 0 0 0 0 0 0 0 0 0 0 0 0 0.1 0"/>
<feBlend mode="normal" in2="BackgroundImageFix" result="effect1_dropShadow_913_423"/>
<feBlend mode="normal" in="SourceGraphic" in2="effect1_dropShadow_913_423" result="shape"/>
</filter>
<clipPath id="clip0_913_423">
<rect width="1440" height="1515" fill="white" transform="translate(-1232 -28)"/>
</clipPath>
<clipPath id="clip1_913_423">
<rect width="16" height="16" fill="white"/>
</clipPath>
</defs>
</svg>
