<svg width="16" height="16" viewBox="0 0 16 16" fill="none" xmlns="http://www.w3.org/2000/svg">
<rect width="16" height="16" fill="#1E1E1E"/>
<path d="M-2211 -126C-2211 -127.105 -2210.1 -128 -2209 -128H404C405.104 -128 406 -127.105 406 -126V2183C406 2184.1 405.104 2185 404 2185H-2209C-2210.1 2185 -2211 2184.1 -2211 2183V-126Z" fill="#404040"/>
<path d="M-2209 -127H404V-129H-2209V-127ZM405 -126V2183H407V-126H405ZM404 2184H-2209V2186H404V2184ZM-2210 2183V-126H-2212V2183H-2210ZM-2209 2184C-2209.55 2184 -2210 2183.55 -2210 2183H-2212C-2212 2184.66 -2210.66 2186 -2209 2186V2184ZM405 2183C405 2183.55 404.552 2184 404 2184V2186C405.657 2186 407 2184.66 407 2183H405ZM404 -127C404.552 -127 405 -126.552 405 -126H407C407 -127.657 405.657 -129 404 -129V-127ZM-2209 -129C-2210.66 -129 -2212 -127.657 -2212 -126H-2210C-2210 -126.552 -2209.55 -127 -2209 -127V-129Z" fill="white" fill-opacity="0.1"/>
<g clip-path="url(#clip0_913_423)">
<rect width="1440" height="1515" transform="translate(-1198 -28)" fill="white"/>
<g filter="url(#filter0_d_913_423)">
<circle cx="8" cy="8" r="12" fill="#1B7BFD"/>
</g>
<g clip-path="url(#clip1_913_423)">
<path d="M9.33335 9H11L11.6667 6.33333H9.33335V4.99999C9.33335 4.31333 9.33335 3.66666 10.6667 3.66666H11.6667V1.42666C11.4494 1.39799 10.6287 1.33333 9.76202 1.33333C7.95202 1.33333 6.66669 2.43799 6.66669 4.46666V6.33333H4.66669V9H6.66669V14.6667H9.33335V9Z" fill="white"/>
</g>
</g>
<defs>
<filter id="filter0_d_913_423" x="-5" y="-4" width="26" height="26" filterUnits="userSpaceOnUse" color-interpolation-filters="sRGB">
<feFlood flood-opacity="0" result="BackgroundImageFix"/>
<feColorMatrix in="SourceAlpha" type="matrix" values="0 0 0 0 0 0 0 0 0 0 0 0 0 0 0 0 0 0 127 0" result="hardAlpha"/>
<feOffset dy="1"/>
<feGaussianBlur stdDeviation="0.5"/>
<feColorMatrix type="matrix" values="0 0 0 0 0 0 0 0 0 0 0 0 0 0 0 0 0 0 0.1 0"/>
<feBlend mode="normal" in2="BackgroundImageFix" result="effect1_dropShadow_913_423"/>
<feBlend mode="normal" in="SourceGraphic" in2="effect1_dropShadow_913_423" result="shape"/>
</filter>
<clipPath id="clip0_913_423">
<rect width="1440" height="1515" fill="white" transform="translate(-1198 -28)"/>
</clipPath>
<clipPath id="clip1_913_423">
<rect width="16" height="16" fill="white"/>
</clipPath>
</defs>
</svg>
