<svg width="33" height="51" viewBox="0 0 33 51" fill="none" xmlns="http://www.w3.org/2000/svg">
<g filter="url(#filter0_i_915_11)">
<path d="M32.9999 46.2499H5.73575V0.329849H32.9999V10.2846H18.145V17.5112H31.9007V27.466H18.145V36.1362H32.9999V46.2499Z" fill="#F65050"/>
<mask id="mask0_915_11" style="mask-type:luminance" maskUnits="userSpaceOnUse" x="0" y="2" width="22" height="49">
<path d="M0 2.62018H21.7548V50.3678H0V2.62018Z" fill="white"/>
</mask>
<g mask="url(#mask0_915_11)">
<mask id="mask1_915_11" style="mask-type:luminance" maskUnits="userSpaceOnUse" x="-5" y="1" width="31" height="50">
<path d="M-4.96625 4.13764L20.5101 1.25053L25.76 47.5712L0.283742 50.4583L-4.96625 4.13764Z" fill="white"/>
</mask>
<g mask="url(#mask1_915_11)">
<mask id="mask2_915_11" style="mask-type:luminance" maskUnits="userSpaceOnUse" x="-5" y="1" width="31" height="50">
<path d="M-4.96625 4.13764L20.5101 1.25053L25.76 47.5712L0.283742 50.4583L-4.96625 4.13764Z" fill="white"/>
</mask>
<g mask="url(#mask2_915_11)">
<path d="M20.6922 2.74927L7.27536 2.98876L0.0432434 25.4577L7.81725 24.4633L0.284939 50.1802L21.5376 17.6483L11.6193 17.8536L20.6922 2.74927Z" fill="white"/>
</g>
</g>
</g>
<mask id="mask3_915_11" style="mask-type:luminance" maskUnits="userSpaceOnUse" x="0" y="2" width="14" height="49">
<path d="M0 2.9026H13.5615V50.3677H0V2.9026Z" fill="white"/>
</mask>
<g mask="url(#mask3_915_11)">
<mask id="mask4_915_11" style="mask-type:luminance" maskUnits="userSpaceOnUse" x="-5" y="1" width="31" height="50">
<path d="M-4.96625 4.13749L20.5101 1.25038L25.76 47.571L0.283742 50.4581L-4.96625 4.13749Z" fill="white"/>
</mask>
<g mask="url(#mask4_915_11)">
<mask id="mask5_915_11" style="mask-type:luminance" maskUnits="userSpaceOnUse" x="-5" y="1" width="31" height="50">
<path d="M-4.96625 4.13749L20.5101 1.25038L25.76 47.571L0.283742 50.4581L-4.96625 4.13749Z" fill="white"/>
</mask>
<g mask="url(#mask5_915_11)">
<path d="M0.790404 49.4064L13.2913 21.9303L5.51837 22.9247L11.9625 2.90479L7.27536 2.98866L0.0432434 25.4576L7.81724 24.4632L0.284939 50.1801L0.790404 49.4064Z" fill="#F65050"/>
</g>
</g>
</g>
<mask id="mask6_915_11" style="mask-type:luminance" maskUnits="userSpaceOnUse" x="0" y="2" width="22" height="49">
<path d="M0 2.33752H21.7548V50.3677H0V2.33752Z" fill="white"/>
</mask>
<g mask="url(#mask6_915_11)">
<mask id="mask7_915_11" style="mask-type:luminance" maskUnits="userSpaceOnUse" x="-5" y="1" width="31" height="50">
<path d="M-4.96625 4.1376L20.5101 1.25049L25.76 47.5711L0.283742 50.4582L-4.96625 4.1376Z" fill="white"/>
</mask>
<g mask="url(#mask7_915_11)">
<mask id="mask8_915_11" style="mask-type:luminance" maskUnits="userSpaceOnUse" x="-5" y="1" width="31" height="50">
<path d="M-4.96625 4.1376L20.5101 1.25049L25.76 47.5711L0.283742 50.4582L-4.96625 4.1376Z" fill="white"/>
</mask>
<g mask="url(#mask8_915_11)">
<path d="M20.6722 2.57703C17.2521 2.63773 13.8319 2.69953 10.4117 2.76023C9.6105 2.77458 8.80926 2.78892 8.00802 2.80327C7.93628 2.80437 7.27189 2.76464 7.25093 2.83307C6.97502 3.68618 6.70132 4.54039 6.42541 5.39461C4.29208 12.023 2.15876 18.6515 0.0254307 25.281L0.0243271 25.2854C0.0132906 25.3174 0.0695762 25.6286 0.0629543 25.6297C2.65318 25.2976 5.24562 24.9665 7.83585 24.6354C7.82261 24.5206 7.81047 24.4058 7.79722 24.291C5.86145 30.8985 3.92678 37.5071 1.991 44.1145C1.41601 46.079 0.841016 48.0435 0.264919 50.0079C0.240639 50.094 0.351003 50.2827 0.30465 50.3534C3.58134 45.3362 6.85914 40.3191 10.1358 35.3031C13.8915 29.5543 17.6483 23.8043 21.4028 18.0555C21.4547 17.9771 21.5055 17.8988 21.5573 17.8204C21.5739 17.795 21.5132 17.4761 21.5176 17.4761C18.2111 17.5456 14.9057 17.6129 11.5992 17.6814C11.6125 17.7961 11.6257 17.912 11.639 18.0257C14.6629 12.9909 17.6869 7.95614 20.712 2.92136C20.7594 2.8419 20.6259 2.65428 20.6722 2.57703C17.6483 7.61181 14.6232 12.6466 11.5992 17.6814C11.5838 17.7079 11.6423 18.0268 11.639 18.0257C14.9444 17.9584 18.2509 17.89 21.5573 17.8204C21.5441 17.7056 21.5309 17.5909 21.5176 17.4761C18.2409 22.4932 14.9631 27.5092 11.6864 32.5264C7.93076 38.2752 4.1751 44.024 0.418325 49.774C0.367557 49.8512 0.31679 49.9296 0.264919 50.0079C0.278163 50.1227 0.291407 50.2386 0.30465 50.3534C2.23932 43.7448 4.1751 37.1362 6.11087 30.5288C6.68586 28.5643 7.26086 26.5998 7.83585 24.6354C7.84578 24.6023 7.79171 24.291 7.79722 24.291C5.20589 24.6221 2.61456 24.9532 0.0243271 25.2854C0.0364668 25.4002 0.0497106 25.515 0.0629543 25.6297C2.17752 19.0587 4.29318 12.4877 6.40775 5.91662C6.69911 5.01054 6.99157 4.10446 7.28293 3.19727C7.31604 3.09463 7.82261 3.15202 7.91752 3.14981C8.68344 3.13657 9.44937 3.12333 10.2153 3.10898C13.7116 3.04607 17.2079 2.98427 20.7042 2.92136H20.712C20.7031 2.92136 20.6866 2.57703 20.6722 2.57703Z" fill="#F65050"/>
</g>
</g>
</g>
</g>
<defs>
<filter id="filter0_i_915_11" x="0.0228882" y="0.329849" width="41.7175" height="59.7351" filterUnits="userSpaceOnUse" color-interpolation-filters="sRGB">
<feFlood flood-opacity="0" result="BackgroundImageFix"/>
<feBlend mode="normal" in="SourceGraphic" in2="BackgroundImageFix" result="shape"/>
<feColorMatrix in="SourceAlpha" type="matrix" values="0 0 0 0 0 0 0 0 0 0 0 0 0 0 0 0 0 0 127 0" result="hardAlpha"/>
<feOffset dx="8.74047" dy="9.71163"/>
<feGaussianBlur stdDeviation="9.22605"/>
<feComposite in2="hardAlpha" operator="arithmetic" k2="-1" k3="1"/>
<feColorMatrix type="matrix" values="0 0 0 0 0.238264 0 0 0 0 0.287572 0 0 0 0 0.391667 0 0 0 0.3 0"/>
<feBlend mode="normal" in2="shape" result="effect1_innerShadow_915_11"/>
</filter>
</defs>
</svg>
