<svg width="16" height="16" viewBox="0 0 16 16" fill="none" xmlns="http://www.w3.org/2000/svg">
<rect width="16" height="16" fill="#1E1E1E"/>
<path d="M-1133 -122C-1133 -123.105 -1132.1 -124 -1131 -124H1482C1483.1 -124 1484 -123.105 1484 -122V2187C1484 2188.1 1483.1 2189 1482 2189H-1131C-1132.1 2189 -1133 2188.1 -1133 2187V-122Z" fill="#404040"/>
<path d="M-1131 -123H1482V-125H-1131V-123ZM1483 -122V2187H1485V-122H1483ZM1482 2188H-1131V2190H1482V2188ZM-1132 2187V-122H-1134V2187H-1132ZM-1131 2188C-1131.55 2188 -1132 2187.55 -1132 2187H-1134C-1134 2188.66 -1132.66 2190 -1131 2190V2188ZM1483 2187C1483 2187.55 1482.55 2188 1482 2188V2190C1483.66 2190 1485 2188.66 1485 2187H1483ZM1482 -123C1482.55 -123 1483 -122.552 1483 -122H1485C1485 -123.657 1483.66 -125 1482 -125V-123ZM-1131 -125C-1132.66 -125 -1134 -123.657 -1134 -122H-1132C-1132 -122.552 -1131.55 -123 -1131 -123V-125Z" fill="white" fill-opacity="0.1"/>
<g clip-path="url(#clip0_913_423)">
<rect width="1440" height="1515" transform="translate(-120 -24)" fill="white"/>
<g clip-path="url(#clip1_913_423)">
<path d="M4.05532 8.66667C3.95895 8.09332 3.98873 7.50585 4.14257 6.94518C4.29642 6.38451 4.57064 5.86412 4.94613 5.42025C5.32162 4.97637 5.78936 4.61969 6.31678 4.37504C6.84419 4.13038 7.4186 4.00364 7.99999 4.00364C8.58138 4.00364 9.15579 4.13038 9.6832 4.37504C10.2106 4.61969 10.6784 4.97637 11.0538 5.42025C11.4293 5.86412 11.7036 6.38451 11.8574 6.94518C12.0113 7.50585 12.041 8.09332 11.9447 8.66667H4.05532ZM1.33332 10H7.99999V11.3333H1.33332V10ZM9.33332 10H14.6667V11.3333H9.33332V10ZM10.6667 12.6667H13.3333V14H10.6667V12.6667ZM2.66666 12.6667H9.33332V14H2.66666V12.6667ZM7.33332 0.666672H8.66666V2.66667H7.33332V0.666672ZM2.34332 3.286L3.28599 2.34334L4.69999 3.75734L3.75732 4.70001L2.34332 3.28667V3.286ZM12.7133 2.34334L13.656 3.286L12.242 4.70001L11.2993 3.75734L12.7133 2.34334ZM15.3333 7.33334V8.66667H13.3333V7.33334H15.3333ZM2.66666 7.33334V8.66667H0.666656V7.33334H2.66666Z" fill="#393939"/>
</g>
</g>
<defs>
<clipPath id="clip0_913_423">
<rect width="1440" height="1515" fill="white" transform="translate(-120 -24)"/>
</clipPath>
<clipPath id="clip1_913_423">
<rect width="16" height="16" fill="white"/>
</clipPath>
</defs>
</svg>
