<svg width="24" height="25" viewBox="0 0 24 25" fill="none" xmlns="http://www.w3.org/2000/svg">
<path d="M21 12.8488C21 13.0477 20.921 13.2385 20.7803 13.3792C20.6397 13.5198 20.4489 13.5988 20.25 13.5988H3.75C3.55109 13.5988 3.36032 13.5198 3.21967 13.3792C3.07902 13.2385 3 13.0477 3 12.8488C3 12.6499 3.07902 12.4592 3.21967 12.3185C3.36032 12.1778 3.55109 12.0988 3.75 12.0988H20.25C20.4489 12.0988 20.6397 12.1778 20.7803 12.3185C20.921 12.4592 21 12.6499 21 12.8488ZM3.75 7.59883H20.25C20.4489 7.59883 20.6397 7.51981 20.7803 7.37916C20.921 7.23851 21 7.04774 21 6.84883C21 6.64992 20.921 6.45915 20.7803 6.3185C20.6397 6.17785 20.4489 6.09883 20.25 6.09883H3.75C3.55109 6.09883 3.36032 6.17785 3.21967 6.3185C3.07902 6.45915 3 6.64992 3 6.84883C3 7.04774 3.07902 7.23851 3.21967 7.37916C3.36032 7.51981 3.55109 7.59883 3.75 7.59883ZM20.25 18.0988H3.75C3.55109 18.0988 3.36032 18.1778 3.21967 18.3185C3.07902 18.4592 3 18.6499 3 18.8488C3 19.0477 3.07902 19.2385 3.21967 19.3792C3.36032 19.5198 3.55109 19.5988 3.75 19.5988H20.25C20.4489 19.5988 20.6397 19.5198 20.7803 19.3792C20.921 19.2385 21 19.0477 21 18.8488C21 18.6499 20.921 18.4592 20.7803 18.3185C20.6397 18.1778 20.4489 18.0988 20.25 18.0988Z" fill="black"/>
</svg>
