<svg width="14" height="13" viewBox="0 0 14 13" fill="none" xmlns="http://www.w3.org/2000/svg">
<g clip-path="url(#clip0_914_650)">
<path d="M10.1185 9.00618L12.3149 11.1472L11.5893 11.8547L9.39336 9.71318C8.5763 10.3518 7.56003 10.6991 6.51285 10.6977C3.96515 10.6977 1.89746 8.68168 1.89746 6.19768C1.89746 3.71368 3.96515 1.69768 6.51285 1.69768C9.06054 1.69768 11.1282 3.71368 11.1282 6.19768C11.1297 7.21868 10.7735 8.20955 10.1185 9.00618ZM9.08977 8.63518C9.7406 7.98262 10.1041 7.10789 10.1026 6.19768C10.1026 4.26368 8.49592 2.69768 6.51285 2.69768C4.52926 2.69768 2.9231 4.26368 2.9231 6.19768C2.9231 8.13118 4.52926 9.69768 6.51285 9.69768C7.4464 9.69911 8.34356 9.34473 9.01285 8.71018L9.08977 8.63518Z" fill="white" fill-opacity="0.3"/>
</g>
<defs>
<clipPath id="clip0_914_650">
<rect width="12.3077" height="12" fill="white" transform="translate(0.871826 0.697678)"/>
</clipPath>
</defs>
</svg>
